<svg viewBox="0 0 466 78" version="1.1" xmlns="http://www.w3.org/2000/svg">
    <path d="M77.798,29.783 C77.798,34.6521 73.8194,38.5994 68.9116,38.5994 C64.0053,38.5994 60.0266,34.6521 60.0266,29.783 C60.0266,24.9149 64.0052,20.9676 68.9116,20.9676 C73.8194,20.9676 77.798,24.9149 77.798,29.783" id="Shape" fill="#737577"></path>
    <path d="M90.287,27.162 C90.287,29.5318 88.3515,31.4511 85.9629,31.4511 C83.5757,31.4511 81.6403,29.5318 81.6403,27.162 C81.6403,24.7936 83.5758,22.8734 85.9629,22.8734 C88.3515,22.8734 90.287,24.7936 90.287,27.162" id="Shape" fill="#858789"></path>
    <path d="M87.885,42.65 C87.885,45.6759 85.4121,48.1294 82.3607,48.1294 C79.3107,48.1294 76.8368,45.6759 76.8368,42.65 C76.8368,39.6227 79.3107,37.1692 82.3607,37.1692 C85.4121,37.1692 87.885,39.6227 87.885,42.65" id="Shape" fill="#858789"></path>
    <path d="M57.144,67.907 C57.144,71.7224 54.0254,74.8164 50.1797,74.8164 C46.3326,74.8164 43.2145,71.7224 43.2145,67.907 C43.2145,64.0902 46.3326,60.9971 50.1797,60.9971 C54.0254,60.9971 57.144,64.0902 57.144,67.907" id="Shape" fill="#858789"></path>
    <path d="M45.252,20.234 C45.252,18.2594 46.8639,16.6597 48.8533,16.6597 C50.844,16.6597 52.4565,18.2594 52.4565,20.234 C52.4565,22.2076 50.8441,23.8073 48.8533,23.8073 C46.864,23.8073 45.252,22.2076 45.252,20.234" id="Shape" fill="#858789"></path>
    <path d="M56.183,50.99 C56.183,52.3061 55.1081,53.3721 53.7825,53.3721 C52.456,53.3721 51.3801,52.3061 51.3801,50.99 C51.3801,49.673 52.456,48.607 53.7825,48.607 C55.1081,48.607 56.183,49.673 56.183,50.99" id="Shape" fill="#858789"></path>
    <path d="M109.62,73.749 C109.62,75.5907 108.1148,77.0846 106.2579,77.0846 C104.4001,77.0846 102.8949,75.5908 102.8949,73.749 C102.8949,71.9058 104.4001,70.4125 106.2579,70.4125 C108.1147,70.4125 109.62,71.9058 109.62,73.749" id="Shape" fill="#858789"></path>
    <path d="M9.5768,38.691 L34.4398,38.691 C33.5608,35.293 29.0798,30.28 21.4368,29.685 C13.9688,30.024 10.2798,35.207 9.5768,38.691 M-0.0002,42.854 C0.087949,31.3 9.4008,21.614 21.4368,21.614 C32.8578,21.614 41.9068,29.8551 42.6098,41.325 L42.6098,41.74951 C42.6098,41.92064 42.6098,42.34562 42.5226,42.51485 C42.2591,44.55415 40.4137,45.91375 37.9541,45.91375 L10.0151,45.91375 C10.45442,47.86755 11.4212,50.07705 13.0022,51.52025 C14.8471,53.55955 18.3612,55.08885 21.4364,55.34415 C24.5998,55.59895 28.3768,54.83361 30.5734,53.22015 C32.4188,51.35095 36.0205,51.60535 37.1627,52.96535 C38.3044,54.15525 39.183,56.70325 37.1627,58.48775 C32.8577,62.31165 27.674,64.09525 21.4367,64.09525 C9.4017,64.00925 0.0887,54.40825 0.0007,42.85325" id="Shape" fill="#4D4C4E"></path>
    <path d="M121.22,26.372 L121.22,59.506 C121.22,62.0559 119.1992,64.0952 116.4761,64.0952 C113.8402,64.0952 111.7318,62.0559 111.7318,59.506 L111.7318,26.372 C111.7318,23.6524 113.8402,21.6991 116.4761,21.6991 C119.1992,21.6991 121.22,23.6524 121.22,26.372" id="Shape" fill="#4D4C4E"></path>
    <path d="M124.29,51.945 C125.871,49.9066 128.9462,49.6513 130.8793,51.26664 C133.1631,53.13484 137.1169,55.08864 140.5433,55.00454 C142.9148,55.00454 145.1118,54.23919 146.517,53.38974 C147.7473,52.37104 148.0989,51.52014 148.0989,50.84034 C148.0989,50.41583 148.0108,50.24612 147.8354,49.99085 C147.7473,49.73605 147.39561,49.39616 146.6928,48.97215 C145.463,48.12219 142.8276,47.18765 139.6647,46.59295 L139.5775,46.59295 C136.8535,46.08335 134.2175,45.40355 131.9333,44.38435 C129.5614,43.28005 127.4534,41.74935 125.871,39.45615 C124.90516,37.92685 124.3782,36.05725 124.3782,34.10345 C124.3782,30.19395 126.6625,26.88115 129.5614,24.75715 C132.6361,22.71785 136.326,21.61355 140.3674,21.61355 C146.4297,21.61355 150.7344,24.41825 153.5464,26.28645 C155.6548,27.64605 156.27,30.44925 154.952,32.57415 C153.5464,34.61345 150.647,35.20815 148.4504,33.76255 C145.6392,31.97845 143.1791,30.62035 140.3678,30.62035 C138.1712,30.62035 136.2386,31.29966 135.097,32.14965 C133.9544,32.91358 133.6914,33.67895 133.6914,34.10345 C133.6914,34.44287 133.6914,34.52796 133.86674,34.78323 C133.95444,34.95294 134.21791,35.2933 134.83305,35.63272 C135.97515,36.39759 138.25945,37.16152 141.24655,37.67202 L141.33465,37.75617 L141.42235,37.75617 C144.32175,38.26671 147.04535,39.03107 149.59255,40.22007 C151.96495,41.24067 154.33735,42.85367 155.83015,45.23377 C156.88455,46.93277 157.49975,48.88657 157.49975,50.84027 C157.49975,55.00457 155.12735,58.48757 151.96495,60.69667 C148.80205,62.82017 144.84865,64.09557 140.54395,64.09557 C133.69165,64.01001 128.41995,60.95147 124.90595,58.23277 C122.97335,56.70347 122.70935,53.81467 124.29082,51.94507" id="Shape" fill="#4D4C4E"></path>
    <path d="M180.88,26.286 C180.88,28.8354 178.5957,30.9589 175.9598,30.9589 L173.7637,30.9589 L173.7637,54.6629 C176.4868,54.6629 178.5957,56.7878 178.5957,59.4214 C178.5957,62.055 176.4868,64.0943 173.7637,64.0943 C168.4047,64.0943 164.012,59.8464 164.012,54.6629 L164.012,30.9589 L161.4638,30.9589 C158.7402,30.9589 156.6318,28.8354 156.6318,26.286 C156.6318,23.6524 158.7402,21.6131 161.4638,21.6131 L164.012,21.6131 L164.012,9.2941 C164.012,6.6605 166.2081,4.6212 168.9312,4.6212 C171.6553,4.6212 173.7637,6.6605 173.7637,9.2941 L173.7637,21.6131 L175.9598,21.6131 C178.5957,21.6131 180.88,23.6524 180.88,26.286" id="Shape" fill="#4D4C4E"></path>
    <path d="M81.16,53.372 C81.16,56.2675 78.7947,58.6136 75.8763,58.6136 C72.9583,58.6136 70.5926,56.2675 70.5926,53.372 C70.5926,50.4775 72.9583,48.1299 75.8763,48.1299 C78.7948,48.1299 81.16,50.4775 81.16,53.372" id="Shape" fill="#4D4C4E"></path>
    <path d="M95.089,63.856 C95.089,67.2771 92.294,70.0501 88.8461,70.0501 C85.3968,70.0501 82.6008,67.2771 82.6008,63.856 C82.6008,60.4344 85.3968,57.6609 88.8461,57.6609 C92.2939,57.6609 95.089,60.4344 95.089,63.856" id="Shape" fill="#4D4C4E"></path>
    <path d="M54.743,10.484 C54.743,12.5895 53.0224,14.2961 50.8997,14.2961 C48.7774,14.2961 47.0573,12.5896 47.0573,10.484 C47.0573,8.378 48.7774,6.671 50.8997,6.671 C53.0224,6.671 54.743,8.378 54.743,10.484" id="Shape" fill="#4D4C4E"></path>
    <path d="M43.695,74.34 C43.695,76.1817 42.1898,77.6756 40.3329,77.6756 C38.4751,77.6756 36.9699,76.1818 36.9699,74.34 C36.9699,72.4968 38.4751,71.0035 40.3329,71.0035 C42.1898,71.0035 43.695,72.4968 43.695,74.34" id="Shape" fill="#4D4C4E"></path>
    <path d="M86.445,17.394 C86.445,19.3676 84.8316,20.9683 82.8423,20.9683 C80.8516,20.9683 79.2396,19.3676 79.2396,17.394 C79.2396,15.4194 80.8515,13.8197 82.8423,13.8197 C84.8316,13.8197 86.445,15.4194 86.445,17.394" id="Shape" fill="#4D4C4E"></path>
    <path d="M63.869,17.394 C63.869,20.1571 61.6109,22.3973 58.825,22.3973 C56.04,22.3973 53.7819,20.157 53.7819,17.394 C53.7819,14.63 56.04,12.3897 58.825,12.3897 C61.611,12.3897 63.869,14.63 63.869,17.394" id="Shape" fill="#F8B531"></path>
    <path d="M57.624,28.115 C57.624,29.9567 56.1193,31.4506 54.2619,31.4506 C52.4041,31.4506 50.8994,29.9568 50.8994,28.115 C50.8994,26.2733 52.4041,24.7794 54.2619,24.7794 C56.1192,24.7794 57.624,26.2732 57.624,28.115" id="Shape" fill="#F8B531"></path>
    <path d="M181.24,51.945 C182.8205,49.9061 185.8957,49.6509 187.8293,51.26569 C190.1131,53.13489 194.0665,55.08859 197.4933,55.00399 C199.8652,55.00399 202.0618,54.23912 203.4665,53.38919 C204.6977,52.37049 205.0494,51.51999 205.0494,50.84029 C205.0494,50.41578 204.9603,50.24607 204.78495,49.9908 C204.69775,49.736 204.34563,49.39611 203.64235,48.9716 C202.41305,48.12164 199.77715,47.1871 196.61425,46.5924 L196.52655,46.5924 C193.80345,46.08233 191.16755,45.403 188.88335,44.3838 C186.51095,43.279 184.40345,41.7493 182.82055,39.4556 C181.85472,37.9263 181.32775,36.0572 181.32775,34.1029 C181.32775,30.1939 183.61155,26.881 186.51095,24.7566 C189.58615,22.7177 193.27605,21.6134 197.31795,21.6134 C203.38025,21.6134 207.68495,24.4171 210.49595,26.2863 C212.60485,27.6454 213.21955,30.4491 211.90155,32.5736 C210.49595,34.6129 207.59695,35.2072 205.40045,33.7625 C202.58925,31.9784 200.12915,30.6193 197.31785,30.6193 C195.12125,30.6193 193.18865,31.29956 192.04655,32.1486 C190.90445,32.91347 190.64095,33.6779 190.64095,34.1029 C190.64095,34.44279 190.64095,34.52741 190.8163,34.78268 C190.9045,34.95286 191.16794,35.29228 191.78308,35.63217 C192.92478,36.39704 195.20898,37.16147 198.19658,37.67147 L198.28428,37.75609 L198.37248,37.75609 C201.27138,38.26663 203.99498,39.03099 206.54228,40.21999 C208.91518,41.24009 211.28708,42.85359 212.78088,45.23329 C213.83488,46.93279 214.44998,48.88649 214.44998,50.84029 C214.44998,55.00409 212.07708,58.48759 208.91518,60.69669 C205.75178,62.82019 201.79848,64.09509 197.49418,64.09509 C190.64138,64.01 185.37018,60.95099 181.85518,58.23279 C179.92258,56.70349 179.65908,53.81469 181.24052,51.94509" id="Shape" fill="#F8B531"></path>
    <path d="M224.86,42.939 C224.86,46.5927 226.0021,49.5662 228.0234,51.9445 C230.219,53.9838 233.1184,55.0886 236.4572,55.0886 C239.5319,55.0886 242.3432,53.9838 244.5398,51.9445 C246.7359,49.5662 247.9667,46.5928 247.9667,42.939 C247.9667,39.455 246.7359,36.3969 244.5398,34.1028 C242.3432,32.2336 239.532,30.8741 236.4572,30.8741 C233.1185,30.8741 230.2191,32.2337 228.0234,34.1028 C226.0022,36.3969 224.86,39.455 224.86,42.939 M221.3459,57.893 C217.5683,54.1542 215.2836,48.8861 215.2836,42.939 C215.2836,37.1618 217.5683,32.149 221.3459,28.071 C225.2993,24.0774 230.3948,21.6135 236.4569,21.6135 C242.2557,21.6135 247.5269,24.0774 251.1289,28.071 C255.0818,32.1487 257.2784,37.162 257.2784,42.939 C257.2784,48.8859 255.0818,54.154 251.1289,57.893 C247.5267,61.8857 242.2558,64.3495 236.4569,64.3495 C230.3946,64.3495 225.2989,61.8856 221.3459,57.893" id="Shape" fill="#F8B531"></path>
    <path d="M264.72,4.6204 C267.4431,4.6204 269.6397,6.7448 269.6397,9.2933 L269.6397,59.4213 C269.6397,61.9702 267.4431,64.0942 264.72,64.0942 C262.0836,64.0942 259.8875,61.9702 259.8875,59.4213 L259.8875,9.2933 C259.8875,6.7448 262.0836,4.6204 264.72,4.6204" id="Shape" fill="#F8B531"></path>
    <path d="M290.18,64.094 C280.166,64.094 271.906,56.1073 271.906,46.422 L271.906,26.116 C271.906,23.7368 274.0144,21.6123 276.5627,21.6123 C279.1981,21.6123 281.2189,23.7367 281.2189,26.116 L281.2189,46.422 C281.2189,51.2651 285.1727,55.088 290.1796,55.088 C295.2765,55.088 299.3176,51.2651 299.4043,46.422 L299.4043,26.116 C299.4043,23.7368 301.3379,21.6123 303.9733,21.6123 C306.4334,21.6123 308.7181,23.7367 308.7181,26.116 L308.7181,46.422 C308.7181,56.1072 300.2839,64.094 290.1791,64.094" id="Shape" fill="#F8B531"></path>
    <path d="M334.86,26.286 C334.86,28.8349 332.5753,30.9589 329.9398,30.9589 L327.7432,30.9589 L327.7432,54.6629 C330.4668,54.6629 332.5752,56.7873 332.5752,59.4209 C332.5752,62.0545 330.4668,64.0938 327.7432,64.0938 C322.3837,64.0938 317.991,59.8459 317.991,54.6629 L317.991,30.9589 L315.4432,30.9589 C312.7201,30.9589 310.6112,28.8349 310.6112,26.286 C310.6112,23.652 312.7201,21.6131 315.4432,21.6131 L317.991,21.6131 L317.991,9.2931 C317.991,6.6595 320.1871,4.6202 322.9107,4.6202 C325.6352,4.6202 327.7432,6.6595 327.7432,9.2931 L327.7432,21.6131 L329.9398,21.6131 C332.5752,21.6131 334.86,23.652 334.86,26.286 L322,28" id="Shape" fill="#F8B531"></path>
    <path d="M346.37,26.371 L346.37,59.506 C346.37,62.0554 344.3492,64.0948 341.6261,64.0948 C338.9897,64.0948 336.8818,62.0555 336.8818,59.506 L336.8818,26.371 C336.8818,23.6514 338.9898,21.6981 341.6261,21.6981 C344.3492,21.6981 346.37,23.6514 346.37,26.371" id="Shape" fill="#F8B531"></path>
    <path d="M358.16,42.939 C358.16,46.5927 359.3021,49.5662 361.3229,51.9445 C363.5195,53.9838 366.4184,55.0886 369.7571,55.0886 C372.8318,55.0886 375.6436,53.9838 377.8397,51.9445 C380.0363,49.5662 381.2656,46.5928 381.2656,42.939 C381.2656,39.455 380.0363,36.3969 377.8397,34.1028 C375.6436,32.2336 372.8319,30.8741 369.7571,30.8741 C366.4184,30.8741 363.5195,32.2337 361.3229,34.1028 C359.3021,36.3969 358.16,39.455 358.16,42.939 M354.6459,57.893 C350.8674,54.1542 348.5841,48.8861 348.5841,42.939 C348.5841,37.1618 350.8674,32.149 354.6459,28.071 C358.5983,24.0774 363.6953,21.6135 369.7569,21.6135 C375.5547,21.6135 380.8269,24.0774 384.4279,28.071 C388.3817,32.1487 390.5783,37.162 390.5783,42.939 C390.5783,48.8859 388.3817,54.154 384.4279,57.893 C380.8266,61.8857 375.5544,64.3495 369.7569,64.3495 C363.6951,64.3495 358.5979,61.8856 354.6459,57.893" id="Shape" fill="#F8B531"></path>
    <path d="M429.29,39.286 L429.29,59.592 C429.29,62.0554 427.2692,64.0947 424.722,64.0947 C422.2614,64.0947 420.0653,62.0554 420.0653,59.592 L420.0653,39.286 C420.0653,34.5275 415.9361,30.7046 410.9283,30.7046 C406.0081,30.7046 402.1424,34.5275 402.1424,39.286 L402.1424,59.592 C402.1424,59.8468 402.1424,60.10207 401.96657,60.44149 C401.52773,62.48079 399.59517,64.09469 397.31087,64.09469 C394.67547,64.09469 392.65467,62.05539 392.65467,59.59199 L392.65467,39.28599 L392.65467,26.11599 C392.65467,23.65209 394.67547,21.61329 397.31087,21.61329 C399.15577,21.61329 400.82447,22.63249 401.61547,24.24689 C404.25137,22.63249 407.50197,21.61329 410.92827,21.61329 C421.11927,21.61329 429.29027,29.68459 429.29027,39.28529" id="Shape" fill="#F8B531"></path>
    <path d="M432.51,51.945 C434.0914,49.9061 437.1662,49.6509 439.0993,51.26569 C441.3836,53.13489 445.3369,55.08859 448.7638,55.00399 C451.1352,55.00399 453.3323,54.23912 454.7375,53.38919 C455.9673,52.37049 456.3194,51.51999 456.3194,50.84029 C456.3194,50.41578 456.2313,50.24607 456.05543,49.9908 C455.96723,49.736 455.61611,49.39611 454.91333,48.9716 C453.68403,48.12164 451.04763,47.1871 447.88473,46.5924 L447.79753,46.5924 C445.07393,46.08233 442.43853,45.403 440.15383,44.3838 C437.78193,43.279 435.67343,41.7493 434.09153,39.4556 C433.12474,37.9263 432.59773,36.0572 432.59773,34.1029 C432.59773,30.1939 434.88243,26.881 437.78183,24.7566 C440.85663,22.7177 444.54603,21.6134 448.58783,21.6134 C454.64963,21.6134 458.95383,24.4171 461.76583,26.2863 C463.87423,27.6454 464.48893,30.4491 463.17103,32.5736 C461.76583,34.6129 458.86693,35.2072 456.66993,33.7625 C453.85913,31.9784 451.39913,30.6193 448.58783,30.6193 C446.39123,30.6193 444.45913,31.29956 443.31653,32.1486 C442.17443,32.91347 441.91093,33.6779 441.91093,34.1029 C441.91093,34.44279 441.91093,34.52741 442.08676,34.78268 C442.17446,34.95286 442.4384,35.29228 443.05259,35.63217 C444.19469,36.39704 446.47949,37.16147 449.46699,37.67147 L449.55369,37.75609 L449.64279,37.75609 C452.54119,38.26663 455.26429,39.03099 457.81209,40.21999 C460.18499,41.24009 462.55689,42.85359 464.05019,45.23329 C465.10509,46.93279 465.71929,48.88649 465.71929,50.84029 C465.71929,55.00409 463.34689,58.48759 460.18489,60.69669 C457.02199,62.82019 453.06859,64.09509 448.76389,64.09509 C441.91109,64.01 436.63989,60.95099 433.12489,58.23279 C431.19279,56.70349 430.92879,53.81469 432.51023,51.94509" id="Shape" fill="#F8B531"></path>
    <path d="M109.5,8.3394 C109.5,10.313 107.8876,11.9127 105.8983,11.9127 C103.908,11.9127 102.2956,10.313 102.2956,8.3394 C102.2956,6.3648 103.908,4.7651 105.8983,4.7651 C107.8876,4.7651 109.5,6.3648 109.5,8.3394" id="Shape" fill="#F8B531"></path>
    <path d="M101.81,16.678 C101.81,20.3629 98.7991,23.3501 95.0864,23.3501 C91.3722,23.3501 88.3613,20.3629 88.3613,16.678 C88.3613,12.9945 91.3722,10.0073 95.0864,10.0073 C98.7992,10.0073 101.81,12.9945 101.81,16.678" id="Shape" fill="#F8B531"></path>
    <path d="M68.192,45.271 C68.192,47.9027 66.0412,50.0361 63.3891,50.0361 C60.7351,50.0361 58.5857,47.9027 58.5857,45.271 C58.5857,42.6389 60.7351,40.5059 63.3891,40.5059 C66.0412,40.5059 68.192,42.6388 68.192,45.271" id="Shape" fill="#F8B531"></path>
    <path d="M63.869,57.661 C63.869,60.0303 61.9331,61.9496 59.5459,61.9496 C57.1578,61.9496 55.2232,60.0303 55.2232,57.661 C55.2232,55.2926 57.1577,53.3719 59.5459,53.3719 C61.9331,53.3719 63.869,55.2926 63.869,57.661" id="Shape" fill="#F8B531"></path>
    <path d="M98.932,51.942 C98.932,54.3113 96.9975,56.2306 94.6094,56.2306 C92.2222,56.2306 90.2863,54.3113 90.2863,51.942 C90.2863,49.5736 92.2222,47.6529 94.6094,47.6529 C96.9975,47.6529 98.932,49.5736 98.932,51.942" id="Shape" fill="#F8B531"></path>
    <path d="M105.66,63.856 C105.66,65.9615 103.9394,67.6681 101.8176,67.6681 C99.6953,67.6681 97.9752,65.9616 97.9752,63.856 C97.9752,61.7509 99.6953,60.0444 101.8176,60.0444 C103.9394,60.0444 105.66,61.7509 105.66,63.856" id="Shape" fill="#F8B531"></path>
    <path d="M44.541,8.8253 C44.541,10.1414 43.4646,11.2074 42.1391,11.2074 C40.8126,11.2074 39.7381,10.1414 39.7381,8.8253 C39.7381,7.5092 40.8126,6.4423 42.1391,6.4423 C43.4647,6.4423 44.541,7.5092 44.541,8.8253" id="Shape" fill="#F8B531"></path>
    <path d="M43.695,2.383 C43.695,3.6991 42.6201,4.7651 41.2931,4.7651 C39.9666,4.7651 38.8921,3.6991 38.8921,2.383 C38.8921,1.066 39.9671,4.4408921e-16 41.2931,4.4408921e-16 C42.6201,4.4408921e-16 43.695,1.066 43.695,2.383" id="Shape" fill="#F8B531"></path>
    <path d="M51.38,55.755 C51.38,57.3339 50.0897,58.6141 48.4982,58.6141 C46.9058,58.6141 45.6155,57.334 45.6155,55.755 C45.6155,54.1751 46.9058,52.895 48.4982,52.895 C50.0897,52.895 51.38,54.1751 51.38,55.755" id="Shape" fill="#F8B531"></path>
</svg>
